<?xml version="1.0" encoding="UTF-8" standalone="no"?>
<svg width="200px" height="34px" viewBox="0 0 200 34" version="1.1" xmlns="http://www.w3.org/2000/svg" xmlns:xlink="http://www.w3.org/1999/xlink" xmlns:sketch="http://www.bohemiancoding.com/sketch/ns">
    <!-- Generator: Sketch 3.4 (15588) - http://www.bohemiancoding.com/sketch -->
    <title>COLLR.Io + Path 148 + Path 149</title>
    <desc>Created with Sketch.</desc>
    <defs></defs>
    <g id="Page-1" stroke="none" stroke-width="1" fill="none" fill-rule="evenodd" sketch:type="MSPage">
        <g id="Home" sketch:type="MSArtboardGroup" transform="translate(-88.000000, -94.000000)" fill="#FFFFFF">
            <g id="COLLR.Io-+-Path-148-+-Path-149" sketch:type="MSLayerGroup" transform="translate(88.000000, 94.000000)">
                <path d="M16.478177,28.475 C10.4220948,28.475 5.58661841,24.0833333 5.58661841,17 C5.58661841,10.3416667 9.71789924,5.525 16.478177,5.525 C19.4827449,5.525 22.2525809,6.75277778 24.2243285,8.73611111 L28.0739311,4.86388889 C25.1163096,1.84166667 21.0319752,0 16.478177,0 C6.85417048,0 0,7.03611111 0,17 C0,27.3888889 7.41752696,34 16.478177,34 C21.0319752,34 25.1163096,32.1583333 28.0739311,29.1833333 L24.2243285,25.2638889 C22.2525809,27.2472222 19.4827449,28.475 16.478177,28.475 Z M46.8609308,24.5555556 C53.5742621,24.5555556 59.0669878,19.0305556 59.0669878,12.2777778 C59.0669878,5.525 53.5742621,0 46.8609308,0 C40.1475994,0 34.6548737,5.525 34.6548737,12.2777778 C34.6548737,19.0305556 40.1475994,24.5555556 46.8609308,24.5555556 Z M46.8609308,5.47777778 C50.6166406,5.47777778 53.6212085,8.5 53.6212085,12.2777778 C53.6212085,16.0555556 50.6166406,19.0777778 46.8609308,19.0777778 C43.1052209,19.0777778 40.100653,16.0555556 40.100653,12.2777778 C40.100653,8.5 43.1052209,5.47777778 46.8609308,5.47777778 L46.8609308,5.47777778 Z M57.5647038,28.05 L35.8754794,28.05 L35.8754794,33.5277778 L57.5647038,33.5277778 L57.5647038,28.05 Z M73.1124037,28.0027778 L73.1124037,0.472222222 L67.619678,0.472222222 L67.619678,33.5277778 L85.2715143,33.5277778 L85.2715143,28.0027778 L73.1124037,28.0027778 Z M96.6325367,28.0027778 L96.6325367,0.472222222 L91.139811,0.472222222 L91.139811,33.5277778 L108.791647,33.5277778 L108.791647,28.0027778 L96.6325367,28.0027778 Z M137.330817,33.5277778 L128.411006,19.1722222 C131.603359,18.275 135.640748,15.9611111 135.640748,10.1055556 C135.640748,0.472222222 124.655296,0.472222222 124.655296,0.472222222 L113.716791,0.472222222 L113.716791,5.99722222 L113.716791,14.2611111 L113.716791,33.5277778 L119.209517,33.5277778 L119.209517,19.7388889 L122.354924,19.7388889 L130.899164,33.5277778 L137.330817,33.5277778 Z M118.262139,5.99722222 L123.665197,5.99722222 C123.665197,5.99722222 129.157923,5.99722222 129.157923,10.1055556 C129.157923,13.3638889 123.214982,14.2138884 118.428799,14.2138889 L118.262139,5.99722222 Z M143.813642,27.8611111 C142.217465,27.8611111 140.902967,29.2305556 140.902967,30.8833333 C140.902967,32.4888889 142.217465,33.8111111 143.813642,33.8111111 C145.503711,33.8111111 146.81821,32.4888889 146.81821,30.8833333 C146.81821,29.2305556 145.503711,27.8611111 143.813642,27.8611111 L143.813642,27.8611111 Z M162.686084,5.525 L162.686084,0.472222222 L151.849922,0.472222222 L151.849922,5.525 L154.52164,5.525 L154.52164,28.475 L151.662136,28.475 L151.662136,33.5277778 L162.873869,33.5277778 L162.873869,28.475 L160.014366,28.475 L160.014366,5.525 L162.686084,5.525 Z M183.201649,0.0472222222 C161.559371,0.0472222222 161.512424,33.9527778 183.201649,33.9527778 C204.79698,33.9527778 204.750034,0.0472222222 183.201649,0.0472222222 L183.201649,0.0472222222 Z M183.201649,5.43055556 C197.4264,5.43055556 197.4264,28.6166667 183.201649,28.6166667 C168.976898,28.6166667 169.023844,5.43055556 183.201649,5.43055556 Z" id="COLLR.Io" sketch:type="MSShapeGroup"></path>
                <path d="M35.6435644,8 C33.6633663,4.88659358 33.6633663,1 33.6633663,1 L40.5940594,2 C40.5940594,2 37.6237624,11.1134064 35.6435644,8 Z" id="Path-148" sketch:type="MSShapeGroup"></path>
                <path d="M53.4653465,2 L60.3960396,1 C60.3960396,1 60.3960396,6 57.4257426,8 C54.4554455,10 53.4653465,2 53.4653465,2 Z" id="Path-149" sketch:type="MSShapeGroup"></path>
            </g>
        </g>
    </g>
</svg>